<?xml version="1.0" encoding="UTF-8"?>
<svg version="1.1" xmlns="http://www.w3.org/2000/svg" width="231" height="59">
<path d="M0 0 C76.23 0 152.46 0 231 0 C231 19.47 231 38.94 231 59 C154.77 59 78.54 59 0 59 C0 39.53 0 20.06 0 0 Z " fill="#FDFDFD" transform="translate(0,0)"/>
<path d="M0 0 C0.98178223 -0.00430527 0.98178223 -0.00430527 1.98339844 -0.00869751 C3.36524319 -0.01073618 4.74711693 -0.00521996 6.12890625 0.00732422 C8.2428445 0.02338314 10.35487113 0.00747149 12.46875 -0.01171875 C13.81250422 -0.00973628 15.15625724 -0.00589252 16.5 0 C17.72203125 0.00338379 18.9440625 0.00676758 20.203125 0.01025391 C23.25 0.3984375 23.25 0.3984375 25.11254883 1.57861328 C26.64325545 4.02761245 26.87969999 6.04611828 27.19921875 8.9140625 C27.32490234 10.00074219 27.45058594 11.08742188 27.58007812 12.20703125 C27.75700195 13.91052734 27.75700195 13.91052734 27.9375 15.6484375 C28.06705078 16.76863281 28.19660156 17.88882813 28.33007812 19.04296875 C28.67775696 22.15920125 28.97830587 25.27475565 29.25 28.3984375 C29.32299316 29.12998047 29.39598633 29.86152344 29.47119141 30.61523438 C29.65010803 33.56932913 29.45232922 35.11260373 27.72558594 37.55200195 C24.34677834 40.07211259 21.36100591 39.95642534 17.30859375 39.89453125 C16.16246361 39.8967141 16.16246361 39.8967141 14.99317932 39.89894104 C13.3818886 39.89728457 11.77058165 39.88575133 10.15942383 39.86499023 C7.692189 39.83599261 5.22709816 39.84439322 2.75976562 39.85742188 C1.19269789 39.85118536 -0.37436307 39.84279509 -1.94140625 39.83203125 C-2.67895645 39.83496689 -3.41650665 39.83790253 -4.17640686 39.84092712 C-7.09735904 39.78704338 -9.23455907 39.73378692 -11.72119141 38.1159668 C-15.18428387 32.33455828 -12.22049088 21.40422881 -11.4375 15.0234375 C-11.31955078 13.94449219 -11.20160156 12.86554687 -11.08007812 11.75390625 C-10.95439453 10.72136719 -10.82871094 9.68882813 -10.69921875 8.625 C-10.58924561 7.69252441 -10.47927246 6.76004883 -10.3659668 5.79931641 C-8.8686578 -0.03680595 -5.55434415 0.01537991 0 0 Z " fill="#14825D" transform="translate(30.75,19.6015625)"/>
<path d="M0 0 C4.6404379 0.09718195 7.89692809 0.51902287 11.75 3.3125 C14.15777323 6.20182788 14.71115399 8.00728136 15.1875 11.75 C14.66284546 16.02218693 13.54623825 18.06281771 10.75 21.3125 C7.11233034 23.14375009 4.11203913 23.58459844 0.0625 23.5625 C-1.36642578 23.57023437 -1.36642578 23.57023437 -2.82421875 23.578125 C-5.25 23.3125 -5.25 23.3125 -7.25 21.3125 C-7.50878906 19.37304688 -7.50878906 19.37304688 -7.515625 17.03125 C-7.51820312 16.18949219 -7.52078125 15.34773438 -7.5234375 14.48046875 C-7.51183594 13.15982422 -7.51183594 13.15982422 -7.5 11.8125 C-7.50773437 10.93207031 -7.51546875 10.05164062 -7.5234375 9.14453125 C-7.52085938 8.30277344 -7.51828125 7.46101563 -7.515625 6.59375 C-7.51336914 5.82095703 -7.51111328 5.04816406 -7.50878906 4.25195312 C-6.90829745 -0.24833499 -3.78575041 0.01551537 0 0 Z " fill="#2A8868" transform="translate(83.25,26.6875)"/>
<path d="M0 0 C3.9375 0.4375 3.9375 0.4375 6.9375 2.4375 C7.5975 1.7775 8.2575 1.1175 8.9375 0.4375 C14.57744911 -0.19926845 14.57744911 -0.19926845 16.9375 0.4375 C19.40194259 2.57564009 20.76051518 4.25461932 21.25146484 7.53588867 C21.33108465 9.95313575 21.28667291 12.33361389 21.1875 14.75 C21.16945312 15.58595703 21.15140625 16.42191406 21.1328125 17.28320312 C21.08591126 19.33513228 21.01417411 21.38646756 20.9375 23.4375 C19.2875 23.1075 17.6375 22.7775 15.9375 22.4375 C15.6075 16.4975 15.2775 10.5575 14.9375 4.4375 C13.2875 4.7675 11.6375 5.0975 9.9375 5.4375 C9.6075 11.3775 9.2775 17.3175 8.9375 23.4375 C7.2875 23.1075 5.6375 22.7775 3.9375 22.4375 C3.6075 16.8275 3.2775 11.2175 2.9375 5.4375 C1.6175 5.1075 0.2975 4.7775 -1.0625 4.4375 C-3.18175604 6.55675604 -2.48081017 11.0571093 -2.625 14 C-2.66818359 14.80630859 -2.71136719 15.61261719 -2.75585938 16.44335938 C-2.86225262 18.44118805 -2.96290888 20.4393207 -3.0625 22.4375 C-5 23 -5 23 -7.0625 23.4375 C-9.15748931 21.34251069 -8.33935494 17.06286788 -8.375 14.1875 C-8.40400391 13.42308594 -8.43300781 12.65867187 -8.46289062 11.87109375 C-8.50696295 7.94526681 -8.3220043 5.88129829 -6.296875 2.41796875 C-3.90452299 0.29747493 -3.12307458 -0.18654203 0 0 Z " fill="#2A8767" transform="translate(155.0625,26.5625)"/>
<path d="M0 0 C1.58179615 -0.10867302 3.16577153 -0.18589827 4.75 -0.25 C5.63171875 -0.29640625 6.5134375 -0.3428125 7.421875 -0.390625 C10 0 10 0 12.3125 1.625 C14.49363528 4.69474596 14.41201817 6.52358213 14.25 10.25 C14.21390625 11.32765625 14.1778125 12.4053125 14.140625 13.515625 C14.07101563 14.74539062 14.07101563 14.74539062 14 16 C11.72975032 16.08097324 9.45867925 16.13917704 7.1875 16.1875 C5.29064453 16.23970703 5.29064453 16.23970703 3.35546875 16.29296875 C0 16 0 16 -1.9609375 14.6484375 C-3 13 -3 13 -2.8125 10.4375 C-2 8 -2 8 0 6 C2.1640625 5.8046875 2.1640625 5.8046875 4.625 5.875 C5.85089844 5.90207031 5.85089844 5.90207031 7.1015625 5.9296875 C8.04128906 5.96449219 8.04128906 5.96449219 9 6 C8.67 5.34 8.34 4.68 8 4 C4.7 4 1.4 4 -2 4 C-1.34 2.68 -0.68 1.36 0 0 Z " fill="#228563" transform="translate(122,34)"/>
<path d="M0 0 C1.31291016 -0.03867187 1.31291016 -0.03867187 2.65234375 -0.078125 C5.0625 0.25 5.0625 0.25 6.8671875 1.34765625 C8.66238538 4.20471954 8.34896088 6.60581713 8.25 9.9375 C8.22292969 11.11699219 8.19585937 12.29648437 8.16796875 13.51171875 C8.13316406 14.41535156 8.09835938 15.31898437 8.0625 16.25 C5.77108714 16.30384521 3.47931812 16.34272087 1.1875 16.375 C-0.08867187 16.39820312 -1.36484375 16.42140625 -2.6796875 16.4453125 C-5.9375 16.25 -5.9375 16.25 -7.9375 14.25 C-8.1875 11.25 -8.1875 11.25 -7.9375 8.25 C-5.9375 6.25 -5.9375 6.25 -3.7734375 6.0546875 C-2.55527344 6.08949219 -2.55527344 6.08949219 -1.3125 6.125 C-0.08660156 6.15207031 -0.08660156 6.15207031 1.1640625 6.1796875 C2.10378906 6.21449219 2.10378906 6.21449219 3.0625 6.25 C2.7325 5.59 2.4025 4.93 2.0625 4.25 C-0.9075 4.25 -3.8775 4.25 -6.9375 4.25 C-6.9375 3.26 -6.9375 2.27 -6.9375 1.25 C-4.48367866 0.02308933 -2.73765897 0.04824069 0 0 Z " fill="#17825E" transform="translate(186.9375,33.75)"/>
<path d="M0 0 C2.35546875 0.421875 2.35546875 0.421875 5.04296875 2.109375 C6.35546875 4.421875 6.35546875 4.421875 5.35546875 9.421875 C1.06546875 9.421875 -3.22453125 9.421875 -7.64453125 9.421875 C-6.65453125 10.906875 -6.65453125 10.906875 -5.64453125 12.421875 C-2.10781099 12.72941589 0.96592074 12.46481285 4.35546875 11.421875 C4.35546875 12.741875 4.35546875 14.061875 4.35546875 15.421875 C0.87156958 17.16382459 -2.84353264 16.99857824 -6.64453125 16.421875 C-10.15264904 13.98767082 -11.41829859 12.62844916 -12.20703125 8.421875 C-10.80572123 0.94822158 -7.02235719 -0.37341929 0 0 Z " fill="#218462" transform="translate(111.64453125,33.578125)"/>
<path d="M0 0 C3.24812693 0.84648156 4.88992576 2.9648036 6.93359375 5.50390625 C7.26359375 5.83390625 7.59359375 6.16390625 7.93359375 6.50390625 C7.93359375 8.15390625 7.93359375 9.80390625 7.93359375 11.50390625 C1.33359375 11.50390625 -5.26640625 11.50390625 -12.06640625 11.50390625 C-10.77805857 3.77382017 -8.1446534 -0.47728593 0 0 Z " fill="#F9F9F8" transform="translate(40.06640625,8.49609375)"/>
<path d="M0 0 C1.423125 -0.061875 2.84625 -0.12375 4.3125 -0.1875 C5.51326172 -0.23970703 5.51326172 -0.23970703 6.73828125 -0.29296875 C9 0 9 0 10.76953125 1.265625 C12.87754055 4.2369143 12.4792951 7.54768601 12 11 C11.0625 13.5 11.0625 13.5 9 15 C5.92076209 15.3275785 3.11411312 15.1805283 0 15 C0 10.05 0 5.1 0 0 Z " fill="#FCFDFD" transform="translate(81,31)"/>
<path d="M0 0 C2.0625 0.4375 2.0625 0.4375 4 1 C4 2.98 4 4.96 4 7 C5.65 7.33 7.3 7.66 9 8 C8.67 8.99 8.34 9.98 8 11 C6.68 11 5.36 11 4 11 C4 13.97 4 16.94 4 20 C4.99 19.34 5.98 18.68 7 18 C7.99 18 8.98 18 10 18 C9.125 21.875 9.125 21.875 8 23 C4.5625 23.25 4.5625 23.25 1 23 C-1.20914 19.68629 -1.22481553 18.6553979 -1.125 14.8125 C-1.10695312 13.91144531 -1.08890625 13.01039062 -1.0703125 12.08203125 C-1.04710937 11.39496094 -1.02390625 10.70789062 -1 10 C-1.99 10 -2.98 10 -4 10 C-4 9.01 -4 8.02 -4 7 C-3.01 7 -2.02 7 -1 7 C-1.020625 6.030625 -1.04125 5.06125 -1.0625 4.0625 C-1 1 -1 1 0 0 Z " fill="#2C8869" transform="translate(215,27)"/>
<path d="M0 0 C1.98 0.495 1.98 0.495 4 1 C4 8.59 4 16.18 4 24 C2.35 24.33 0.7 24.66 -1 25 C-1.02886984 21.02084841 -1.04675406 17.04172347 -1.0625 13.0625 C-1.07087891 11.92619141 -1.07925781 10.78988281 -1.08789062 9.61914062 C-1.09111328 8.53955078 -1.09433594 7.45996094 -1.09765625 6.34765625 C-1.10289307 5.34742432 -1.10812988 4.34719238 -1.11352539 3.31665039 C-1 1 -1 1 0 0 Z " fill="#338C6E" transform="translate(140,25)"/>
<path d="M0 0 C1.21346851 3.64040554 1.21346851 5.35959446 0 9 C-0.66 9 -1.32 9 -2 9 C-1.67 9.99 -1.34 10.98 -1 12 C-7.0546875 12.1953125 -7.0546875 12.1953125 -9 12 C-11 10 -11 10 -11.25 7 C-11 4 -11 4 -9 2 C-6.8359375 1.8046875 -6.8359375 1.8046875 -4.375 1.875 C-3.14910156 1.90207031 -3.14910156 1.90207031 -1.8984375 1.9296875 C-0.95871094 1.96449219 -0.95871094 1.96449219 0 2 C0 1.34 0 0.68 0 0 Z " fill="#288767" transform="translate(190,38)"/>
<path d="M0 0 C0.99 0 1.98 0 3 0 C3.268125 1.134375 3.53625 2.26875 3.8125 3.4375 C4.4003125 5.2009375 4.4003125 5.2009375 5 7 C8.59264452 8.19754817 11.22717474 8.33094958 15 8 C17.9594592 5.76040926 19.54685114 3.39068068 21 0 C21.66 0 22.32 0 23 0 C22.54726428 4.866909 21.35474936 7.4419325 18 11 C14.52521979 12.73739011 10.79068864 12.59680392 7 12 C3.90367351 9.56246638 2.17699513 7.26549269 0 4 C0 2.68 0 1.36 0 0 Z " fill="#ECF4F1" transform="translate(27,37)"/>
<path d="M0 0 C2.475 0.495 2.475 0.495 5 1 C5.33 0.67 5.66 0.34 6 0 C7.99958364 -0.04080783 10.00045254 -0.04254356 12 0 C12 0.99 12 1.98 12 3 C11.030625 3.309375 10.06125 3.61875 9.0625 3.9375 C6.15934208 4.69523342 6.15934208 4.69523342 5 6 C4.76712992 7.68183948 4.58735834 9.3712416 4.4375 11.0625 C4.31181641 12.44115234 4.31181641 12.44115234 4.18359375 13.84765625 C4.12300781 14.55792969 4.06242188 15.26820312 4 16 C2.68 16 1.36 16 0 16 C0 10.72 0 5.44 0 0 Z " fill="#14815C" transform="translate(198,34)"/>
<path d="M0 0 C3.24812693 0.84648156 4.88992576 2.9648036 6.93359375 5.50390625 C7.26359375 5.83390625 7.59359375 6.16390625 7.93359375 6.50390625 C7.97423207 8.1700774 7.97631475 9.8377872 7.93359375 11.50390625 C6.94359375 11.50390625 5.95359375 11.50390625 4.93359375 11.50390625 C4.62421875 10.53453125 4.31484375 9.56515625 3.99609375 8.56640625 C3.23836033 5.66324833 3.23836033 5.66324833 1.93359375 4.50390625 C-2.08297768 4.27472383 -2.08297768 4.27472383 -6.06640625 4.50390625 C-8.42593719 6.86343719 -8.55782038 8.28286242 -9.06640625 11.50390625 C-10.05640625 11.50390625 -11.04640625 11.50390625 -12.06640625 11.50390625 C-11.80342262 7.73447415 -11.22830779 5.72958718 -9.00390625 2.62890625 C-5.69345026 0.2341083 -3.99020051 -0.23383028 0 0 Z " fill="#E9C63C" transform="translate(40.06640625,8.49609375)"/>
<path d="M0 0 C1.32 0 2.64 0 4 0 C4 5.61 4 11.22 4 17 C2.68 17 1.36 17 0 17 C0 11.39 0 5.78 0 0 Z " fill="#14815C" transform="translate(68,27)"/>
<path d="M0 0 C0.99 0 1.98 0 3 0 C3.66 2.31 4.32 4.62 5 7 C9.455 7.99 9.455 7.99 14 9 C10 11 10 11 6 11 C2.69661976 8.38802493 1.19950862 6.81338128 0.1875 2.6875 C0.125625 1.800625 0.06375 0.91375 0 0 Z " fill="#DCECE7" transform="translate(27,37)"/>
<path d="M0 0 C2.31 0.66 4.62 1.32 7 2 C7 2.33 7 2.66 7 3 C5.88625 3.12375 4.7725 3.2475 3.625 3.375 C-0.03103677 3.6465813 -0.03103677 3.6465813 -2 6 C-2.64767793 8.57061311 -2.64767793 8.57061311 -3 11 C-3.99 11 -4.98 11 -6 11 C-5.62671065 5.64951939 -4.0042343 3.49087093 0 0 Z " fill="#E5C64E" transform="translate(34,9)"/>
<path d="M0 0 C3.63 0 7.26 0 11 0 C10 3 10 3 8 4 C6.00039988 4.039992 3.99952758 4.04346799 2 4 C1.34 2.68 0.68 1.36 0 0 Z " fill="#DAE0DE" transform="translate(104,43)"/>
<path d="M0 0 C1.65 0.33 3.3 0.66 5 1 C4.67 2.65 4.34 4.3 4 6 C2.35 5.67 0.7 5.34 -1 5 C-0.67 3.35 -0.34 1.7 0 0 Z " fill="#EFF6F4" transform="translate(27,29)"/>
<path d="M0 0 C1.4540625 0.0309375 1.4540625 0.0309375 2.9375 0.0625 C3.5975 1.7125 4.2575 3.3625 4.9375 5.0625 C3.9475 5.0625 2.9575 5.0625 1.9375 5.0625 C1.6075 4.4025 1.2775 3.7425 0.9375 3.0625 C-0.0525 3.0625 -1.0425 3.0625 -2.0625 3.0625 C-2.3925 3.7225 -2.7225 4.3825 -3.0625 5.0625 C-3.7225 5.0625 -4.3825 5.0625 -5.0625 5.0625 C-3.9375 0.08035714 -3.9375 0.08035714 0 0 Z " fill="#EAF4F0" transform="translate(49.0625,29.9375)"/>
<path d="M0 0 C1.98 0 3.96 0 6 0 C6 1.32 6 2.64 6 4 C4.02 4 2.04 4 0 4 C0 2.68 0 1.36 0 0 Z " fill="#F6F7F6" transform="translate(184,43)"/>
<path d="M0 0 C2.31 0 4.62 0 7 0 C6.67 1.32 6.34 2.64 6 4 C4.02 4 2.04 4 0 4 C0 2.68 0 1.36 0 0 Z " fill="#F7F8F8" transform="translate(124,43)"/>
<path d="M0 0 C1.98 0.495 1.98 0.495 4 1 C4 2.32 4 3.64 4 5 C2.35 4.67 0.7 4.34 -1 4 C-0.67 2.68 -0.34 1.36 0 0 Z " fill="#2E896A" transform="translate(68,45)"/>
<path d="M0 0 C0.33 0.99 0.66 1.98 1 3 C-5.0546875 3.1953125 -5.0546875 3.1953125 -7 3 C-7.66 2.34 -8.32 1.68 -9 1 C-5.8035914 -0.06546953 -3.34252724 -0.07427838 0 0 Z " fill="#DBE1DF" transform="translate(130,37)"/>
<path d="M0 0 C0.33 0.99 0.66 1.98 1 3 C-5.0546875 3.1953125 -5.0546875 3.1953125 -7 3 C-7.66 2.34 -8.32 1.68 -9 1 C-5.92677456 0.08941469 -3.19902639 -0.08886184 0 0 Z " fill="#DEE3E1" transform="translate(189,37)"/>
<path d="M0 0 C1.98 0 3.96 0 6 0 C6.33 0.99 6.66 1.98 7 3 C4.36 3 1.72 3 -1 3 C-0.67 2.01 -0.34 1.02 0 0 Z " fill="#F6F7F7" transform="translate(106,37)"/>
<path d="M0 0 C1.98 0 3.96 0 6 0 C6 0.99 6 1.98 6 3 C4.02 3.33 2.04 3.66 0 4 C0 2.68 0 1.36 0 0 Z " fill="#218563" transform="translate(204,34)"/>
<path d="M0 0 C0.99 0 1.98 0 3 0 C3.33 1.65 3.66 3.3 4 5 C3.01 5.33 2.02 5.66 1 6 C0.67 4.02 0.34 2.04 0 0 Z " fill="#D0E6DE" transform="translate(27,37)"/>
</svg>
